#!OML:ASF E:/inclinewalkrobotboard/Project1/Captureday1/Session1/subject1.ASF
:FULLY-SPECIFIED
:DEGREES
113
root 0 0 0 1.7529798907041725 -10.691051511287185 0.7818577889435123
lowerback 0.0011171382133627894 -1.5324611839747855 -2.5566479417809513
upperback -0.6567297651092189 -2.0099444298544773 1.884690265841631
thorax -0.4941706151394627 -0.9837429944553996 3.332841505626178
lowerneck -24.43785216947684 -1.6278459937413075 -7.612343560224103
upperneck 28.311680403991982 0.3263827988481758 1.9192155084986253
head 13.629715540013827 -0.6126882561939659 2.2236205751040377
rclavicle -8.803852564796923E-15 1.5253511009646893E-15
rhumerus -30.84630313332184 -0.4539456014558736 -82.21855154626083
rradius 31.878253311191564
rwrist 18.41527714038461
rhand -18.447288323456853 9.077069206972972
rfingers 7.125019999999946
rthumb 7.839465625192875 -20.806753307741754
lclavicle 6.596386819556399E-16 -2.0176534341739265E-16
lhumerus -20.65994248550432 -3.4887594473314327 91.16623993888832
lradius 64.59186650259856
lwrist 1.6926714022993932
lhand -28.75293726038445 20.60311890502224
lfingers 7.125020000000028
lthumb -2.114061989941292 50.586927956295
rfemur 10.838014745391577 8.771184845374409 36.92271936197734
rtibia 22.825680966530605
rfoot -22.30116608708135 -6.959698171657391
rtoes -2.4882664838268624
lfemur -31.888228241601585 -3.32494422993538 -9.045989516420942
ltibia 25.405333429165992
lfoot -6.081989965001558 4.50998923557964
ltoes -4.043813994340887
114
root 0 0 0 1.7534574293205543 -10.708365070505508 0.782188324479284
lowerback -0.007714718389157937 -1.535167491197695 -2.5628733935376555
upperback -0.6586996488217237 -2.013061138388108 1.8624268559404262
thorax -0.49090132718145674 -0.9848022021542021 3.3134730934040526
lowerneck -24.387555911679158 -1.618984865935274 -7.618647161871007
upperneck 28.439371294931973 0.3405445465359783 1.8955307120832212
head 13.6649849416435 -0.6116219145161903 2.2183287088238948
rclavicle -1.0156681436226226E-14 1.4523931052583766E-15
rhumerus -30.840098807216545 -0.030509122278798984 -82.08164397685535
rradius 31.81161519067054
rwrist 18.320078820642287
rhand -18.557050020427607 9.15517758591357
rfingers 7.125019999999943
rthumb 7.733596697889886 -20.73384123298608
lclavicle -2.300000380948968E-16 -1.5424830884204074E-16
lhumerus -20.45637241916082 -2.8138733205434825 90.96426969352221
lradius 64.42266438439134
lwrist 1.601104228902066
lhand -28.7040416369779 20.524161520131624
lfingers 7.125020000000028
lthumb -2.060927216783683 50.50330418414685
rfemur 14.044081163145906 7.876558585298161 35.23934545298688
rtibia 29.67646524631869
rfoot -18.962270753937847 -4.807536357958568
rtoes -6.468770891108373
lfemur -30.570662301212092 -5.072219140720407 -9.123175696084104
ltibia 20.054684445050356
lfoot -4.612026349697799 4.0582261079645505
ltoes -3.4021565299498233
115
root 0 0 0 1.745661059669903 -10.733991826184466 0.7842854596887182
lowerback -0.01952655912689849 -1.5404060843482539 -2.569010818242876
upperback -0.669572912773566 -2.0191141229953486 1.8402014723997917
thorax -0.49368671213907844 -0.9868741891358556 3.293108598697235
lowerneck -24.373200438392203 -1.612784014840864 -7.616587013275696
upperneck 28.56756165521246 0.3554495566322491 1.861171144417791
head 13.708506118450293 -0.6120424674634515 2.2085559061590043
rclavicle -1.1123105892606166E-14 1.196536189265215E-15
rhumerus -30.906326396405536 0.17047316760245756 -81.8721153805438
rradius 31.671484013884577
rwrist 18.29557838035289
rhand -18.599376478537028 9.21681190796156
rfingers 7.12501999999994
rthumb 7.6921589515034 -20.669353005170546
lclavicle -2.3841661000162842E-15 1.3087319154857144E-16
lhumerus -20.104299451200834 -2.102052335923414 90.77467116100776
lradius 64.194072286856
lwrist 1.4751338875232851
lhand -28.73112440998743 20.482426031121705
lfingers 7.125020000000028
lthumb -2.082807642168534 50.453263006408676
rfemur 13.317920979422796 6.51510748626583 33.1316051311163
rtibia 36.62821779547718
rfoot -13.192384852890541 -2.4637246404350917
rtoes -6.9982697356080275
lfemur -29.494692123964942 -5.2011938646163 -10.024024966640807
ltibia 20.118132989170164
lfoot -3.545883105796298 3.1159312119796136
ltoes -2.0319105954246766
116
root 0 0 0 1.7343420473981557 -10.778487003627898 0.795791539250874
lowerback -0.04754323024370466 -1.5507931447937593 -2.5780893092439334
upperback -0.6893289548675003 -2.0326758295237224 1.8153444676497483
thorax -0.4957210732909971 -0.9922581502958826 3.2713532277118422
lowerneck -24.44200017294296 -1.6202234358825032 -7.6142964178340655
upperneck 28.62174734066211 0.3605824405018072 1.8295110446827736
head 13.744080661340922 -0.6154120369804277 2.1971620355560666
rclavicle -1.1417223398173337E-14 1.1555341287109154E-15
rhumerus -31.011576341365195 0.11358211696318943 -81.68606250724747
rradius 31.532336928249507
rwrist 18.344373908355863
rhand -18.574020724063125 9.22938097885138
rfingers 7.125019999999937
rthumb 7.715786700456356 -20.649451630697023
lclavicle -3.3527337331195257E-15 4.1252056989781376E-16
lhumerus -19.621835799061273 -1.4144525612742758 90.56855869001576
lradius 64.00527134068183
lwrist 1.3606042978332789
lhand -28.7834055229074 20.4990492359766
lfingers 7.125020000000028
lthumb -2.1307938428724587 50.46094540098129
rfemur 8.064666269050834 4.466901881099073 28.4885440574129
rtibia 48.239599843896556
rfoot -2.728084573428159 0.27539170686547143
rtoes -3.3546421274475797
lfemur -27.840644375929436 -4.663356644564374 -12.03579035380297
ltibia 23.817614979720794
lfoot -2.3040410718869753 0.7847251504249702
ltoes 0.7480854182914758
117
root 0 0 0 1.7433741345303857 -10.879532403460125 0.8360882519272251
lowerback -0.14371469322320407 -1.5899030167059196 -2.6158751178507043
upperback -0.6982671818627764 -2.085138574642253 1.7527930205657896
thorax -0.4468436706899991 -1.0175238228475538 3.2264043434125886
lowerneck -24.629794669429174 -1.6426450916635424 -7.660128680630812
upperneck 28.629442713638255 0.357872049480467 1.8239354852722685
head 13.785913209514982 -0.6157588419581111 2.1964003674351584
rclavicle -1.067074336246245E-14 7.478878529163859E-16
rhumerus -31.412252545906806 -1.1278321245595864 -81.39933840691641
rradius 31.22156920463604
rwrist 18.715109051924188
rhand -18.273940697636814 9.116450022910248
rfingers 7.125019999999935
rthumb 8.003166652045396 -20.736846552758166
lclavicle -3.24350829686305E-15 4.969371992005525E-16
lhumerus -19.05865025764563 -0.8332823027090592 90.40772245645503
lradius 63.857516503130405
lwrist 1.1730497960038782
lhand -28.914585964734442 20.434606330520875
lfingers 7.125020000000025
lthumb -2.2562230440691486 50.38374504508282
rfemur -6.185459537975268 2.5792243796139003 24.500648137264626
rtibia 62.553428500379034
rfoot 8.57182604935683 -0.7227739236549091
rtoes 9.824576056931267
lfemur -20.928729547114383 -3.2340938680779425 -18.61362042271029
ltibia 32.47025932613485
lfoot -1.9440093455812928 -4.270998494184178
ltoes 7.658036581595605
118
root 0 0 0 1.7813923013570978 -10.902793706163123 0.8523411836918118
lowerback -0.19073776523761188 -1.6181701825571306 -2.6467878248938064
upperback -0.6533654658453141 -2.122996950735611 1.7172825740273894
thorax -0.37424587654438657 -1.0382153149753468 3.2065344192379337
lowerneck -24.617733918365833 -1.6384412890263427 -7.7335559681049
upperneck 28.6651353952035 0.3530468339611884 1.8766539539101543
head 13.781167400777253 -0.6059355757397943 2.220607484574531
rclavicle -7.419055644669894E-15 1.0999042393981335E-15
rhumerus -31.93141130300542 -2.876313711464179 -81.14084107917463
rradius 30.86063212819271
rwrist 19.206232495816387
rhand -17.88843434444872 8.995103781626081
rfingers 7.125019999999933
rthumb 8.375130628049307 -20.840778002880036
lclavicle -2.4942329233859525E-15 8.327114390244093E-16
lhumerus -19.254215204801994 -1.5476182603345743 90.38289959990001
lradius 64.13666413072471
lwrist 1.445824905923113
lhand -28.767520962583184 20.593608776794138
lfingers 7.125020000000025
lthumb -2.1189166507389867 50.56057160372656
rfemur -11.088505880320128 1.2090018888859388 21.928262813753573
rtibia 70.11726387598941
rfoot 4.713348767115914 -4.024392556086857
rtoes 10.855707334548311
lfemur -16.300888620207616 -2.9630713274783935 -21.998873304385544
ltibia 31.485797485178296
lfoot -5.125594131953082 -3.618060596104695
ltoes 9.73157191645061
119
root 0 0 0 1.8131005678368846 -10.87653395346961 0.8620460159968218
lowerback -0.19214211249151325 -1.6273071658524707 -2.677987118318647
upperback -0.6148393658894342 -2.136381736861078 1.7076618037271012
thorax -0.33393195909615647 -1.046119807165084 3.2150972599680063
lowerneck -24.58219212730738 -1.6360530277682506 -7.79104026692472
upperneck 28.459010463896327 0.33078671546854344 1.9750603753897784
head 13.684003740234875 -0.5929699462454346 2.253076163205802
rclavicle -5.220909529714907E-15 1.254779987355049E-15
rhumerus -32.450225952786646 -4.3970008120704 -80.83677922071065
rradius 30.488396312252153
rwrist 19.685171846746865
rhand -17.547583027673387 8.876680216846301
rfingers 7.125019999999932
rthumb 8.704105100412722 -20.947832208129526
lclavicle -1.9472505077666844E-15 1.1564746942464055E-15
lhumerus -19.390336261929647 -2.393679853328723 90.36891297011327
lradius 64.48564637617554
lwrist 1.749615299371691
lhand -28.661318331169497 20.858848449797396
lfingers 7.125020000000025
lthumb -2.0199272987374846 50.84201333675167
rfemur -17.168365511309307 -0.1679403596753133 21.180099499228845
rtibia 72.86818858563046
rfoot -0.7782091649942444 -6.149388239242411
rtoes 8.054010446320685
lfemur -10.329420314083606 -3.3102850323086557 -25.347545388865694
ltibia 26.897813601080315
lfoot -11.138356163556308 -1.180481635209361
ltoes 9.939598250553741
120
root 0 0 0 1.845127163444268 -10.852395306646471 0.8778788574439458
lowerback -0.20709387090641118 -1.6399754684644203 -2.7145853320880473
upperback -0.5833694993185555 -2.153727779886244 1.7102844494945457
thorax -0.29379491736029195 -1.0564378511932269 3.238451108244144
lowerneck -24.61917962190683 -1.6468749126308606 -7.856030532296362
upperneck 28.12749734046698 0.29238250712111935 2.1004913790628548
head 13.557402645611074 -0.5811689168583004 2.2928874903648993
rclavicle -5.266387477235569E-15 1.0435457892020855E-15
rhumerus -32.81469758268604 -4.999299299123254 -80.49442676198296
rradius 30.189199299994733
rwrist 19.96768087759699
rhand -17.405432992303712 8.81088706031368
rfingers 7.1250199999999335
rthumb 8.841155642918153 -21.005904968156443
lclavicle -1.6587632935773938E-15 8.750906783775564E-16
lhumerus -19.751808156523495 -3.348306695381774 90.67056061729971
lradius 64.69782028554985
lwrist 1.9004697265067185
lhand -28.715572419632082 20.953369082210376
lfingers 7.125020000000025
lthumb -2.0765989559006854 50.94310679432659
rfemur -24.802912542033816 -0.966992074186507 20.493419995317637
rtibia 69.90490635790283
rfoot -4.4830064514176335 -6.93933628862756
rtoes 5.315971922228524
lfemur -4.694270159372935 -3.5257235353424914 -27.789144485457918
ltibia 23.129907010887536
lfoot -15.535016491039617 0.23420084617117798
ltoes 8.445209717381553
